<svg xmlns="http://www.w3.org/2000/svg" width="560" height="120" viewBox="0 0 560 120"><rect width="100%" height="100%" fill="#09150E"/><g transform="translate(20,25)"><g><circle cx="20" cy="20" r="17" fill="none" stroke="#1E3A2A" stroke-width="2.5"/><circle cx="20" cy="20" r="17" fill="none" stroke="#1E3A2A" stroke-width="2.5" stroke-dasharray="2 4"/><g stroke="#5C6B52" stroke-width="1.6" fill="none"><circle cx="20" cy="20" r="7.5"/><path d="M20 12.5 L23.6 15.2 L22.2 19.4 L17.8 19.4 L16.4 15.2 Z" fill="#5C6B52" stroke="none"/></g><circle cx="33" cy="33" r="7" fill="#16301F"/><text x="33" y="36" font-size="9" font-family="monospace" font-weight="bold" text-anchor="middle" fill="#5C6B52">0</text></g></g><text x="40" y="105" font-size="9" font-family="monospace" text-anchor="middle" fill="#86935C">empty</text><g transform="translate(100,25)"><g><circle cx="20" cy="20" r="17" fill="none" stroke="#1E3A2A" stroke-width="2.5"/><circle cx="20" cy="20" r="17" fill="none" stroke="#00FF42" stroke-width="2.5" stroke-linecap="round" stroke-dasharray="40.05530633326987 106.81415022205297" transform="rotate(-90 20 20)"/><g stroke="#00FF42" stroke-width="1.6" fill="none"><circle cx="20" cy="20" r="7.5"/><path d="M20 12.5 L23.6 15.2 L22.2 19.4 L17.8 19.4 L16.4 15.2 Z" fill="#00FF42" stroke="none"/></g><circle cx="33" cy="33" r="7" fill="#00FF42"/><text x="33" y="36" font-size="9" font-family="monospace" font-weight="bold" text-anchor="middle" fill="#09150E">3</text></g></g><text x="120" y="105" font-size="9" font-family="monospace" text-anchor="middle" fill="#86935C">3 of 8</text><g transform="translate(180,25)"><g><circle cx="20" cy="20" r="17" fill="none" stroke="#1E3A2A" stroke-width="2.5"/><circle cx="20" cy="20" r="17" fill="none" stroke="#00FF42" stroke-width="2.5" stroke-linecap="round" stroke-dasharray="80.11061266653974 106.81415022205297" transform="rotate(-90 20 20)"/><g stroke="#00FF42" stroke-width="1.6" fill="none"><circle cx="20" cy="20" r="7.5"/><path d="M20 12.5 L23.6 15.2 L22.2 19.4 L17.8 19.4 L16.4 15.2 Z" fill="#00FF42" stroke="none"/></g><circle cx="33" cy="33" r="7" fill="#00FF42"/><text x="33" y="36" font-size="9" font-family="monospace" font-weight="bold" text-anchor="middle" fill="#09150E">6</text></g></g><text x="200" y="105" font-size="9" font-family="monospace" text-anchor="middle" fill="#86935C">6 of 8</text><g transform="translate(260,25)"><g><circle cx="20" cy="20" r="17" fill="none" stroke="#1E3A2A" stroke-width="2.5"/><circle cx="20" cy="20" r="17" fill="none" stroke="#C9A227" stroke-width="2.5" stroke-linecap="round" stroke-dasharray="106.81415022205297 106.81415022205297" transform="rotate(-90 20 20)"/><g stroke="#C9A227" stroke-width="1.6" fill="none"><circle cx="20" cy="20" r="7.5"/><path d="M20 12.5 L23.6 15.2 L22.2 19.4 L17.8 19.4 L16.4 15.2 Z" fill="#C9A227" stroke="none"/></g><circle cx="33" cy="33" r="7" fill="#C9A227"/><text x="33" y="36" font-size="9" font-family="monospace" font-weight="bold" text-anchor="middle" fill="#09150E">8</text></g></g><text x="280" y="105" font-size="9" font-family="monospace" text-anchor="middle" fill="#86935C">full</text><g transform="translate(340,25)"><g><circle cx="20" cy="20" r="17" fill="none" stroke="#1E3A2A" stroke-width="2.5"/><circle cx="20" cy="20" r="17" fill="none" stroke="#00FF42" stroke-width="2.5" stroke-linecap="round" stroke-dasharray="13.351768777756622 106.81415022205297" transform="rotate(-90 20 20)"/><g stroke="#00FF42" stroke-width="1.6" fill="none"><circle cx="20" cy="20" r="6.5"/><line x1="20" y1="10.5" x2="20" y2="14.5"/><line x1="20" y1="25.5" x2="20" y2="29.5"/><line x1="10.5" y1="20" x2="14.5" y2="20"/><line x1="25.5" y1="20" x2="29.5" y2="20"/><circle cx="20" cy="20" r="1.6" fill="#00FF42" stroke="none"/></g><circle cx="33" cy="33" r="7" fill="#00FF42"/><text x="33" y="36" font-size="9" font-family="monospace" font-weight="bold" text-anchor="middle" fill="#09150E">1</text></g></g><text x="360" y="105" font-size="9" font-family="monospace" text-anchor="middle" fill="#86935C">COD 1</text><g transform="translate(420,25)"><g><circle cx="20" cy="20" r="17" fill="none" stroke="#1E3A2A" stroke-width="2.5"/><circle cx="20" cy="20" r="17" fill="none" stroke="#00FF42" stroke-width="2.5" stroke-linecap="round" stroke-dasharray="35.604716740684324 106.81415022205297" transform="rotate(-90 20 20)"/><g stroke="#00FF42" stroke-width="1.6" fill="none"><circle cx="20" cy="20" r="6.5"/><line x1="20" y1="10.5" x2="20" y2="14.5"/><line x1="20" y1="25.5" x2="20" y2="29.5"/><line x1="10.5" y1="20" x2="14.5" y2="20"/><line x1="25.5" y1="20" x2="29.5" y2="20"/><circle cx="20" cy="20" r="1.6" fill="#00FF42" stroke="none"/></g><circle cx="33" cy="33" r="7" fill="#00FF42"/><text x="33" y="36" font-size="9" font-family="monospace" font-weight="bold" text-anchor="middle" fill="#09150E">4</text></g></g><text x="440" y="105" font-size="9" font-family="monospace" text-anchor="middle" fill="#86935C">PUBG 4</text><g transform="translate(500,25)"><g><circle cx="20" cy="20" r="17" fill="none" stroke="#1E3A2A" stroke-width="2.5"/><circle cx="20" cy="20" r="17" fill="none" stroke="#00FF42" stroke-width="2.5" stroke-linecap="round" stroke-dasharray="26.703537555513243 106.81415022205297" transform="rotate(-90 20 20)"/><g stroke="#00FF42" stroke-width="1.6" fill="none"><rect x="12" y="15" width="16" height="10" rx="5"/><line x1="16" y1="20" x2="18.5" y2="20"/><line x1="17.25" y1="18.75" x2="17.25" y2="21.25"/><circle cx="23.5" cy="19" r="1.1" fill="#00FF42" stroke="none"/><circle cx="25.5" cy="21.5" r="1.1" fill="#00FF42" stroke="none"/></g><circle cx="33" cy="33" r="7" fill="#00FF42"/><text x="33" y="36" font-size="9" font-family="monospace" font-weight="bold" text-anchor="middle" fill="#09150E">2</text></g></g><text x="520" y="105" font-size="9" font-family="monospace" text-anchor="middle" fill="#86935C">Other 2</text></svg>